<svg width="627" height="519" viewBox="0 0 627 519" fill="none" xmlns="http://www.w3.org/2000/svg">
<path d="M625.162 305.495C621.233 332.988 613.07 355.061 601.864 372.665C586.954 396.12 561.45 405.57 538.667 415.459C532.083 418.311 525.239 420.742 518.195 422.73C476.737 434.482 430.335 431.364 393.887 425.159C368.323 420.803 342.373 418.124 316.286 417.146C308.846 416.872 301.398 416.736 293.943 416.738C282.447 416.75 75.4539 419.959 25.0568 336.623C12.6141 316.066 4.08538 290.954 1.0213 260.344C-7.64907 173.805 40.0045 116.969 101.472 79.8189C217.751 9.54399 377.135 12.4911 491.699 84.6172C568.01 132.661 639.461 205.371 625.162 305.495Z" fill="#F2F2F2"/>
<path d="M195.938 269.819C195.938 343.569 152.075 369.32 97.9688 369.32C43.8621 369.32 0 343.569 0 269.819C0 196.069 97.9688 102.247 97.9688 102.247C97.9688 102.247 195.938 196.069 195.938 269.819Z" fill="#E41E51"/>
<path d="M94.4001 358.039L95.4033 296.316L137.16 219.957L95.5607 286.634L96.0113 258.881L124.79 203.636L96.1309 251.537L96.942 201.622L127.759 157.64L97.0694 193.773L97.5762 102.247L94.3909 223.411L94.6528 218.413L63.3211 170.475L94.1506 228.008L91.2311 283.754L91.1442 282.274L55.0245 231.827L91.0345 287.501L90.6694 294.473L90.6041 294.578L90.6342 295.15L83.2277 436.583H93.1232L94.3106 363.531L130.232 307.992L94.4001 358.039Z" fill="#3F3D56"/>
<path d="M627 274.389C627 348.139 583.138 373.89 529.031 373.89C474.925 373.89 431.062 348.139 431.062 274.389C431.062 200.639 529.031 106.817 529.031 106.817C529.031 106.817 627 200.639 627 274.389Z" fill="#E41E51"/>
<path d="M525.463 362.609L526.466 300.886L568.223 224.527L526.623 291.204L527.074 263.451L555.852 208.206L527.193 256.107L528.004 206.192L558.822 162.21L528.132 198.343L528.639 106.817L525.453 227.981L525.715 222.983L494.384 175.045L525.213 232.578L522.294 288.324L522.207 286.844L486.087 236.397L522.097 292.071L521.732 299.043L521.667 299.148L521.697 299.72L514.29 441.153H524.186L525.373 368.1L561.295 312.562L525.463 362.609Z" fill="#3F3D56"/>
<path d="M423.225 211.754C423.225 292.387 375.269 320.542 316.113 320.542C256.956 320.542 209 292.387 209 211.754C209 131.12 316.113 28.5415 316.113 28.5415C316.113 28.5415 423.225 131.12 423.225 211.754Z" fill="#E41E51"/>
<path d="M312.211 308.207L313.307 240.724L358.961 157.238L313.48 230.138L313.973 199.795L345.437 139.394L314.103 191.765L314.99 137.192L348.683 89.1043L315.13 128.61L315.683 28.5417L312.201 161.014L312.487 155.549L278.231 103.137L311.938 166.04L308.746 226.989L308.651 225.371L269.16 170.216L308.532 231.086L308.132 238.708L308.061 238.823L308.093 239.449L299.995 394.082H310.815L312.113 314.211L351.388 253.489L312.211 308.207Z" fill="#3F3D56"/>
<path d="M543.4 447.84C543.4 465.146 429.943 519 289.987 519C150.032 519 36.575 465.146 36.575 447.84C36.575 430.533 140.888 391.695 280.844 391.695C420.8 391.695 543.4 430.533 543.4 447.84Z" fill="#3F3D56"/>
<path opacity="0.1" d="M543.4 447.84C543.4 465.146 429.943 519 289.987 519C150.032 519 36.575 465.146 36.575 447.84C36.575 430.533 140.888 391.695 280.844 391.695C420.8 391.695 543.4 430.533 543.4 447.84Z" fill="black"/>
<path d="M543.4 447.84C543.4 465.146 429.943 479.176 289.987 479.176C150.032 479.176 36.575 465.146 36.575 447.84C36.575 430.533 140.888 391.695 280.844 391.695C420.8 391.695 543.4 430.533 543.4 447.84Z" fill="#3F3D56"/>
<path d="M375.174 361.064C375.174 385.891 390.756 405.981 410.012 405.981L375.174 361.064Z" fill="#3F3D56"/>
<path d="M410.012 405.981C410.012 380.875 427.4 360.559 448.889 360.559L410.012 405.981Z" fill="#E41E51"/>
<path d="M387.796 363.314C387.796 386.898 397.733 405.981 410.012 405.981L387.796 363.314Z" fill="#E41E51"/>
<path d="M410.012 405.981C410.012 373.901 430.11 347.942 454.948 347.942L410.012 405.981Z" fill="#3F3D56"/>
<path d="M402.683 406.297C402.683 406.297 407.623 406.145 409.112 405.086C410.601 404.026 416.712 402.76 417.082 404.46C417.451 406.16 424.507 412.914 418.929 412.959C413.351 413.004 405.968 412.09 404.482 411.185C402.996 410.28 402.683 406.297 402.683 406.297Z" fill="#A8A8A8"/>
<path opacity="0.2" d="M419.028 412.367C413.45 412.412 406.068 411.498 404.581 410.594C403.45 409.904 402.999 407.432 402.848 406.291C402.743 406.296 402.683 406.297 402.683 406.297C402.683 406.297 402.996 410.28 404.482 411.185C405.968 412.09 413.351 413.004 418.929 412.959C420.539 412.946 421.095 412.373 421.064 411.525C420.841 412.037 420.227 412.357 419.028 412.367Z" fill="black"/>
<path opacity="0.1" d="M293.253 458.285C340.867 458.285 379.466 452.147 379.466 444.576C379.466 437.004 340.867 430.866 293.253 430.866C245.639 430.866 207.041 437.004 207.041 444.576C207.041 452.147 245.639 458.285 293.253 458.285Z" fill="black"/>
<path d="M331.134 413.892H322.644V433.477H331.134V413.892Z" fill="#FFB9B9"/>
<path d="M331.787 149.489H299.131V208.245H331.787V149.489Z" fill="#FF6584"/>
<path d="M355.771 260.689L356.901 269.728L327.137 278.766L323.369 262.196L355.771 260.689Z" fill="#FFB9B9"/>
<path d="M311.69 173.696C311.69 173.696 310.936 180.474 309.429 180.474C307.922 180.474 302.648 183.111 302.648 183.111L301.141 190.266L311.69 196.668L329.021 194.785L333.919 187.253L329.021 182.357C329.021 182.357 324.876 173.319 326.384 171.436C327.891 169.553 311.69 173.696 311.69 173.696Z" fill="#FFB9B9"/>
<path opacity="0.1" d="M311.69 173.696C311.69 173.696 310.936 180.474 309.429 180.474C307.922 180.474 302.648 183.111 302.648 183.111L301.141 190.266L311.69 196.668L329.021 194.785L333.919 187.253L329.021 182.357C329.021 182.357 324.876 173.319 326.384 171.436C327.891 169.553 311.69 173.696 311.69 173.696Z" fill="black"/>
<path d="M264.595 408.315C264.595 408.315 261.204 430.911 257.06 432.417C252.916 433.924 272.884 436.56 272.884 436.56L274.391 428.275C274.391 428.275 274.768 413.211 276.275 410.951C277.782 408.692 264.595 408.315 264.595 408.315Z" fill="#FFB9B9"/>
<path d="M303.025 276.883C303.025 276.883 357.654 267.092 358.031 265.209C358.408 263.326 369.334 279.519 362.552 311.153C355.771 342.787 338.817 417.353 338.817 417.353C338.817 417.353 321.486 422.626 321.862 418.483C322.239 414.341 327.891 342.411 327.891 342.411L324.123 311.906L317.718 315.672L290.968 368.396L277.405 413.964C277.405 413.964 260.074 416.977 262.712 410.575C265.349 404.173 274.014 354.462 274.014 354.462L297.75 284.415C297.75 284.415 296.996 276.883 303.025 276.883Z" fill="#2F2E41"/>
<path d="M316.776 178.78C325.515 178.78 332.6 171.698 332.6 162.963C332.6 154.227 325.515 147.146 316.776 147.146C308.037 147.146 300.952 154.227 300.952 162.963C300.952 171.698 308.037 178.78 316.776 178.78Z" fill="#FFB9B9"/>
<path d="M333.165 182.734C333.165 182.734 325.63 189.889 307.922 188.006C290.215 186.123 312.82 228.302 312.82 228.302L319.979 270.858C319.979 270.858 351.626 267.092 352.757 259.936C353.887 252.781 333.165 182.734 333.165 182.734Z" fill="#F2F2F2"/>
<path d="M325.63 223.03C325.63 223.03 316.588 218.511 313.197 206.083C309.806 193.655 306.792 180.851 304.908 181.228C303.318 181.546 288.567 187.233 283.786 191.036C282.904 191.737 282.362 192.375 282.303 192.902C281.926 196.292 295.866 230.185 295.866 230.185C295.866 230.185 306.792 254.664 302.271 262.572C297.75 270.481 297.373 280.649 305.662 279.896C313.951 279.143 341.454 277.636 337.686 256.547C337.686 256.547 344.845 271.234 364.813 260.689C364.813 260.689 376.869 258.807 376.492 254.664C376.116 250.521 357.278 214.745 357.278 214.745C357.278 214.745 354.264 198.928 359.915 192.902L347.105 177.838C347.105 177.838 344.091 173.319 341.077 175.579C338.063 177.838 331.281 181.604 330.151 181.981C329.021 182.357 328.278 180.627 328.278 180.627C325.667 186.085 324.62 192.158 325.253 198.174C326.384 207.966 325.63 223.03 325.63 223.03Z" fill="#2F2E41"/>
<path d="M265.726 427.898C265.726 427.898 264.884 425.262 260.03 427.898C260.03 427.898 261.581 419.613 256.307 419.613C251.032 419.613 249.148 429.405 249.148 429.405C249.148 429.405 247.641 435.807 237.469 438.443C227.296 441.079 235.208 450.117 242.367 450.117C249.525 450.117 258.944 444.468 258.944 444.468C258.944 444.468 278.535 444.845 278.912 441.079C279.289 437.313 277.028 426.015 275.521 426.015C274.014 426.015 271 431.288 271 431.288L265.726 427.898Z" fill="#2F2E41"/>
<path d="M329.774 421.271C329.774 421.271 324.5 415.622 321.486 425.036C318.472 434.451 316.211 438.217 318.095 439.724C319.979 441.23 321.486 440.477 320.732 443.49C319.979 446.502 322.993 452.905 329.774 452.905C336.556 452.905 338.44 448.009 338.063 444.619C337.686 441.23 334.672 437.088 334.672 437.088L331.658 426.543L329.774 421.271Z" fill="#2F2E41"/>
<path d="M359.538 156.372L339.57 163.151C339.57 163.151 321.486 173.696 329.398 175.955C337.309 178.215 344.091 169.176 344.091 169.176L361.422 164.657L359.538 156.372Z" fill="#FFB9B9"/>
<path d="M306.01 138.504C303.639 140.127 301.752 142.351 299.957 144.594C296.311 149.153 292.739 154.598 293.637 160.365C293.978 162.556 294.952 164.594 295.5 166.742C296.24 169.641 296.192 172.675 296.138 175.666C296.182 176.937 296.025 178.207 295.671 179.429C295.143 180.619 294.523 181.766 293.815 182.859C292 186.237 291.956 190.251 291.954 194.086C291.867 195.377 292.043 196.672 292.471 197.893C292.966 199.046 293.889 199.95 294.653 200.945C295.921 202.626 296.767 204.586 297.12 206.661C297.474 208.736 297.324 210.866 296.684 212.871C297.667 212.876 298.631 212.6 299.463 212.075C300.295 211.551 300.96 210.801 301.38 209.912C301.51 210.867 301.428 211.84 301.138 212.76C300.849 213.68 300.36 214.525 299.705 215.234C304.018 213.953 308.641 211.793 310.216 207.58C310.678 206.148 310.938 204.659 310.99 203.156C311.827 192.588 312.305 181.625 308.513 171.724C307.3 168.557 305.649 165.491 305.243 162.124C304.836 158.756 306.079 154.865 309.174 153.475C309.246 154.337 309.629 155.143 310.252 155.744C310.941 156.255 312.214 155.934 312.227 155.077L313.722 157.158C314.295 156.876 314.785 156.449 315.141 155.92L316.166 157.174L318.346 155.589L320.239 157.629C320.967 157.214 321.548 156.582 321.9 155.821C322.307 156.429 322.811 157.098 323.54 157.164C325.127 157.307 325.454 154.789 326.841 154.004C327.353 153.778 327.929 153.743 328.465 153.905C329.001 154.067 329.461 154.417 329.761 154.889C330.333 155.861 330.541 157.004 330.349 158.116C329.775 163.294 325.355 168.019 326.666 173.062C327.403 175.898 329.885 178.171 330.072 181.095C330.222 183.432 328.847 185.642 328.868 187.983C328.893 190.727 330.79 193.057 332.641 195.083C335.936 198.689 339.404 202.125 343.046 205.393L341.921 203.426C342.446 203.384 342.974 203.457 343.468 203.639C343.963 203.82 344.412 204.107 344.785 204.479C345.109 203.348 344.573 202.17 344.067 201.108C341.038 194.75 338.592 187.98 338.227 180.948C337.719 171.172 341.236 161.245 339.007 151.713C337.726 146.376 334.738 141.603 330.498 138.116C328.437 136.42 326.874 135.404 324.205 135.217C321.222 134.958 318.22 134.982 315.241 135.288C311.95 135.601 308.783 136.704 306.01 138.504Z" fill="#FF6584"/>
<path d="M344.091 178.215C344.091 178.215 348.235 178.591 350.119 178.215C352.003 177.838 354.64 175.955 354.64 175.955L368.957 165.411L356.524 167.294C356.524 167.294 358.785 149.97 358.031 149.594C357.278 149.217 394.577 142.062 393.823 153.736C393.07 165.411 371.971 188.383 359.915 192.902L352.003 194.032L344.091 178.215Z" fill="#2F2E41"/>
<path d="M384.691 311.728H207.041V353.51H384.691V311.728Z" fill="white"/>
<path d="M361.505 321.194H229.573V343.391H361.505V321.194Z" fill="#3F3D56"/>
<path d="M260.233 331.805C260.18 331.236 257.661 330.983 254.206 331.125C256.208 328.307 257.368 326.058 256.919 325.703C256.496 325.369 254.764 326.814 252.655 329.161C252.455 326.012 251.993 323.805 251.453 323.805C250.865 323.805 250.367 326.431 250.204 330.041C247.269 327.931 244.9 326.693 244.535 327.155C244.186 327.595 245.773 329.456 248.294 331.683C244.966 332.176 242.622 332.873 242.674 333.432C242.726 334.001 245.245 334.255 248.701 334.112C246.698 336.931 245.538 339.18 245.987 339.534C246.41 339.868 248.142 338.423 250.251 336.076C250.451 339.225 250.914 341.432 251.453 341.432C252.042 341.432 252.539 338.806 252.702 335.196C255.637 337.306 258.007 338.544 258.372 338.082C258.72 337.642 257.134 335.781 254.612 333.554C257.94 333.061 260.285 332.364 260.233 331.805Z" fill="white"/>
<path d="M282.439 331.805C282.386 331.236 279.868 330.983 276.412 331.125C278.414 328.307 279.574 326.058 279.125 325.703C278.702 325.369 276.97 326.814 274.861 329.161C274.662 326.012 274.199 323.805 273.659 323.805C273.071 323.805 272.574 326.431 272.41 330.041C269.476 327.931 267.106 326.693 266.741 327.155C266.393 327.595 267.979 329.456 270.5 331.683C267.172 332.176 264.828 332.873 264.88 333.432C264.933 334.001 267.451 334.255 270.907 334.112C268.904 336.931 267.745 339.18 268.193 339.534C268.617 339.868 270.349 338.423 272.458 336.076C272.657 339.225 273.12 341.432 273.659 341.432C274.248 341.432 274.745 338.806 274.909 335.196C277.843 337.306 280.213 338.544 280.578 338.082C280.926 337.642 279.34 335.781 276.818 333.554C280.146 333.061 282.491 332.364 282.439 331.805Z" fill="white"/>
<path d="M304.645 331.805C304.592 331.236 302.074 330.983 298.618 331.125C300.621 328.307 301.78 326.058 301.332 325.703C300.908 325.369 299.176 326.814 297.067 329.161C296.868 326.012 296.405 323.805 295.866 323.805C295.277 323.805 294.78 326.431 294.616 330.041C291.682 327.931 289.312 326.693 288.947 327.155C288.599 327.595 290.185 329.456 292.707 331.683C289.379 332.176 287.034 332.873 287.086 333.432C287.139 334.001 289.657 334.255 293.113 334.112C291.111 336.931 289.951 339.18 290.4 339.534C290.823 339.868 292.555 338.423 294.664 336.076C294.863 339.225 295.326 341.432 295.866 341.432C296.454 341.432 296.951 338.806 297.115 335.196C300.049 337.306 302.419 338.544 302.784 338.082C303.132 337.642 301.546 335.781 299.025 333.554C302.353 333.061 304.697 332.364 304.645 331.805Z" fill="white"/>
<path d="M326.851 331.805C326.799 331.236 324.28 330.983 320.824 331.125C322.827 328.307 323.987 326.058 323.538 325.703C323.115 325.369 321.383 326.814 319.274 329.161C319.074 326.012 318.611 323.805 318.072 323.805C317.484 323.805 316.986 326.431 316.823 330.041C313.888 327.931 311.518 326.693 311.153 327.155C310.805 327.595 312.391 329.456 314.913 331.683C311.585 332.176 309.241 332.873 309.292 333.432C309.345 334.001 311.864 334.255 315.319 334.112C313.317 336.931 312.157 339.18 312.606 339.534C313.029 339.868 314.761 338.423 316.87 336.076C317.07 339.225 317.532 341.432 318.072 341.432C318.66 341.432 319.158 338.806 319.321 335.196C322.256 337.306 324.625 338.544 324.99 338.082C325.339 337.642 323.752 335.781 321.231 333.554C324.559 333.061 326.903 332.364 326.851 331.805Z" fill="white"/>
<path d="M349.058 331.805C349.005 331.236 346.486 330.983 343.031 331.125C345.033 328.307 346.193 326.058 345.744 325.703C345.321 325.369 343.589 326.814 341.48 329.161C341.28 326.012 340.818 323.805 340.278 323.805C339.69 323.805 339.192 326.431 339.029 330.041C336.094 327.931 333.725 326.693 333.36 327.155C333.011 327.595 334.598 329.456 337.119 331.683C333.791 332.176 331.447 332.873 331.499 333.432C331.551 334.001 334.07 334.255 337.526 334.112C335.523 336.931 334.363 339.18 334.812 339.534C335.235 339.868 336.967 338.423 339.077 336.076C339.276 339.225 339.739 341.432 340.278 341.432C340.867 341.432 341.364 338.806 341.527 335.196C344.462 337.306 346.832 338.544 347.197 338.082C347.545 337.642 345.959 335.781 343.437 333.554C346.765 333.061 349.11 332.364 349.058 331.805Z" fill="white"/>
<path d="M280.042 293.83C280.042 293.83 278.159 318.685 287.201 319.815C296.243 320.945 287.954 291.57 287.954 291.57L280.042 293.83Z" fill="#FFB9B9"/>
<path d="M284.94 192.149L282.303 192.902C282.303 192.902 271.377 280.272 278.535 297.219C278.535 297.219 286.071 293.077 289.838 293.83L295.866 222.653L284.94 192.149Z" fill="#2F2E41"/>
</svg>
